<svg xmlns="http://www.w3.org/2000/svg" width="512" height="512" viewBox="0 0 512 512">
  <rect width="512" height="512" rx="96" fill="#0f0d16"/>
  <circle cx="256" cy="256" r="180" fill="#00E0FF" opacity="0.12"/>
  <path d="M256 110c-45 0-82 37-82 82v60c0 45 37 82 82 82s82-37 82-82v-60c0-45-37-82-82-82zm0 44c21 0 38 17 38 38v60c0 21-17 38-38 38s-38-17-38-38v-60c0-21 17-38 38-38z" fill="#00E0FF"/>
  <rect x="188" y="330" width="136" height="44" rx="22" fill="#00E0FF"/>
  <text x="256" y="372" text-anchor="middle" font-family="Arial, sans-serif" font-size="22" fill="#0f0d16">PRESS F</text>
</svg>
